<svg xmlns="http://www.w3.org/2000/svg" viewBox="0 0 200 101.78"><defs><style>.cls-1{opacity:0.25;}.cls-2{fill:#ee7203;}.cls-2,.cls-3{fill-rule:evenodd;}.cls-3{fill:#3c3c3b;}</style></defs><title>Asset 4</title><g id="Layer_2" data-name="Layer 2"><g id="Page_Elements" data-name="Page Elements"><g class="cls-1"><path class="cls-2" d="M99.94,6.55a54.17,54.17,0,0,1,.12,11.54A46.88,46.88,0,0,1,99.94,6.55Z"/><path class="cls-2" d="M90.54,7.34c3.93,3.28,5.06,9.55,5,11.57C93.28,10.61,90.56,7.5,90.54,7.34Z"/><path class="cls-2" d="M76.82,11.37c6.13,2.7,10.89,6.78,12.65,13.86A32.81,32.81,0,0,0,76.82,11.37Z"/><path class="cls-2" d="M76.28,16.22c.39,5.68,5.52,6.36,6.32,11.17a6.17,6.17,0,0,1-.94,5c.44-2.78-.3-6.2-2.29-7.4-1,9.27-8.82,11.81-9,21.93,1-4.84,3.58-10.07,7.5-11.4-2.46,2.43-5.1,5.72-5.49,10.46s1.13,8.06,3,11.17c-3.17-2.12-6-4.42-7.26-8.48a10.52,10.52,0,0,1-.27-4,22.75,22.75,0,0,1,3.77-10.22c1.74-2.75,4.51-5.82,4.71-8.88C76.5,22.11,74.86,18.9,76.28,16.22Z"/><path class="cls-2" d="M115.56,48c-3.32-8.16-12.19-9.18-15.63-19.41C95.31,38.92,87.61,39.88,84.08,47.83c1.35-1.41,3.8-3.93,6.73-4.71-3.77,2.32-8.46,9-9.55,12.65A11.15,11.15,0,0,1,81,50.52C83.3,38.12,95.46,35.38,98.75,23.62c.46-1.64.84-2.49,1.21-4.3.4,1.46.51,2.59.94,4.17,1.64,6,5.36,9.57,9.15,13.32s7.42,7.36,8.61,13.72a11.15,11.15,0,0,1-.27,5.25c-1.21-3.32-5.35-9.7-9.55-12.65C111.57,44.25,113.52,46.15,115.56,48Z"/><path class="cls-2" d="M96.19,20.12a14.12,14.12,0,0,1-7.8,14.93,14.06,14.06,0,0,0,4.44-6.46c-7.72,3.8-13.32,9.73-15.47,19.1,2-4.92,4.89-8.92,9.42-11.3a30.68,30.68,0,0,1-2.42,2.42c-4,3.76-5.82,11.78-4.71,19.24-2.52-3-4.73-6.94-4.31-12a20.67,20.67,0,0,1,7.67-14c3-2.58,6.35-4.52,9-6.76C93.54,24.05,95.24,22.81,96.19,20.12Z"/><path class="cls-2" d="M59.87,32.09a17.64,17.64,0,0,0,.13,5,10.75,10.75,0,0,0,1.75,4.57,12.39,12.39,0,0,1,.67-7.53c-1.09,8.25,3.11,11,4.57,12.24-6.74-.1-10.76-2.14-12.25-7.78-.93-4.55,2.13-8,1.36-12.13.46.36.82.83,1.35,1.21C59.33,29,62.23,29,64.58,29.94a8.15,8.15,0,0,1,5.25,6.19A16.59,16.59,0,0,0,68.21,34c-2.26-2.39-6.4-2.39-10-3.5-1.92,3.68-1.44,9.77,1.61,12C58.29,40,58.26,34.56,59.87,32.09Z"/><path class="cls-2" d="M58.79,69.09c0,.11.13.13.13.27a30.51,30.51,0,0,1-3.77-8.07c-1-3-1.72-6.29-3.23-8.74a12.36,12.36,0,0,0-2.56-3.36C55,52.14,56.82,60.24,59.87,66c2.65,4.74,7.78,8.16,13.72,10,6.28,1.89,14.79.67,21.26-1.35-4.65,3.21-13.76,3.84-15.2,3.9-1.22.05-7.17,5-18,8.61a41.58,41.58,0,0,1-13.72,2c-2.18,0-11.79,0-19-1.88,5.5-.75,15.8-7.41,21.4-9.09,3.46-1,10.23-1.12,12.77.88C59,78.62,49.42,79.42,43.72,85a37.2,37.2,0,0,0,10.09.81,46.32,46.32,0,0,0,14-3.23c3.06-1.1,6.42-2.3,10.09-3.9A37.67,37.67,0,0,1,58.66,73c-7.21-4.29-10.92-12.2-12.38-16.55s-1.83-9.31-3.36-13.59a13.21,13.21,0,0,0-1.21-2.69C47.35,46,61.52,43.22,65.52,50.66a10.73,10.73,0,0,0-5.78-2.56c-3.85-.73-9.05.91-12.11-.94C50.42,54.86,52.54,64.4,58.79,69.09Z"/><path class="cls-2" d="M85,55.9A30.82,30.82,0,0,1,88.12,54a9.18,9.18,0,0,0,2.69-1.88C88.72,57,82,57.2,81.39,63.57c1.57-1.94,3.29-4.83,6.05-4.71-4.4,2.87-6.24,8.29-7.53,14.26a23,23,0,0,1,5-20.31c1.8-1.95,4-3.72,5.92-5.52A30.36,30.36,0,0,0,95.92,41c-2.15,6-1.06,15.93-3.5,22.6A20.47,20.47,0,0,1,79.64,75.81c5-3.33,6.45-8.31,7.13-10.49.73-2.36.68-5.26,2.83-6.86a31.9,31.9,0,0,0-1.21,5,21.34,21.34,0,0,1-1.21,4.84c4.1-3.17,4.34-12.4,4.57-18.7C89.47,51.65,86.85,53.38,85,55.9Z"/><path class="cls-2" d="M99.82,45.54c2.17,4.19,6.21,8.93,5.79,15.61-.28,4.37-2.82,7.14-5,10,2.62,8.88,7.07,17.15,15.53,21.21.85-2.16-.54-10.42-7.4-14.53,6.68,1,9.35,8.41,11.23,14.81,1.19,4.07.75,6.33,3.44,9.14-2.65-1-11-7.09-12.92-8.75-5.34-4.51-9-11.31-10.49-18.83-.17.41-.3,1.3-.54,2-1.91,7-5.06,12.58-10.09,16.82-1.86,1.57-10.2,7.74-12.92,8.75,2.78-2.88,3.2-6.87,3.63-9.28,1.22-6.48,3.71-13.7,11-14.66C83.61,81.52,83,89.91,83.55,92.36c8.68-3.86,12.78-12.46,16-21.14-2.31-3.2-4.68-5.52-5.19-10C93.71,55,97.49,49.67,99.82,45.54ZM99.29,68a16.1,16.1,0,0,1,.54-8.48A19.05,19.05,0,0,1,100.5,68a10.77,10.77,0,0,0,2.69-5.11c1.17-4.74-1-10.1-3.36-13C96.16,54.21,94.64,63.7,99.29,68Z"/><path class="cls-2" d="M22.47,47.29c8,5.5,21.81,5.9,24.35,16.41C43.43,59.46,39,55.62,32.29,55.1c4.49,8.13,11.38,12.34,24.62,18.57-8.45-1.83-15.08-4.82-20.58-9.42S22.47,47.43,22.47,47.29Z"/><path class="cls-2" d="M78,72.32c-3.25-3-7.81-8.44-10.9-11.57-1.24-1.26-2.16-2.21-3.63-3.9,5,2.36,8.61,6.1,12,10.09C74.23,60,69.79,56.3,63.23,54.69c-3.38,4.94-.19,11.64,3.63,14-.77-2.21-1.71-4.32-1.08-7.4a30.33,30.33,0,0,0,1.48,3.63c1.39,3,4,5.82,9.28,7.53-9.82,1.7-16.54-6-17.09-14.13-.24-3.59.22-7.59-3.63-8.88a13.76,13.76,0,0,1,5.92.27A23.79,23.79,0,0,1,72,55.9C75.86,60.2,78.78,65,78,72.32Z"/><path class="cls-2" d="M35,69.09c-5.32-2.3-9.23-3-13.32-2.56a25.59,25.59,0,0,0-7,1.61c7,4.92,21.91,8,36.46,6.05C48.2,75.71,40,76.76,35.38,76.62,29.28,76.44,10,74.24,0,65.19c7.19,1.27,14.8-1.76,22.47-1.35A19.89,19.89,0,0,1,35,69.09Z"/><path class="cls-3" d="M72.59,87.48c3.18-.47,3.21,4.1.33,4.11C70.48,91.6,69.79,87.89,72.59,87.48ZM74,90.7c.74-.21.25-2.91-.46-2.77C73.19,88.29,73.24,90.42,74,90.7Z"/><path class="cls-3" d="M37.41,45.16c3.18-.47,3.21,4.1.33,4.11C35.31,49.28,34.61,45.57,37.41,45.16Zm1.42,3.22c.74-.21.25-2.91-.46-2.77C38,46,38.07,48.1,38.84,48.38Z"/><path class="cls-3" d="M68.38,23.86c3.18-.47,3.21,4.1.33,4.11C66.28,28,65.59,24.27,68.38,23.86Zm1.42,3.22c.74-.21.25-2.91-.46-2.77C69,24.66,69,26.8,69.81,27.08Z"/><path class="cls-3" d="M125.71,91.87c-2.88,0-2.85-4.58.33-4.11C128.84,88.17,128.15,91.88,125.71,91.87Zm-.64-3.66c-.7-.14-1.19,2.56-.46,2.77C125.39,90.7,125.44,88.57,125.07,88.22Z"/><path class="cls-3" d="M160.89,49.55c-2.88,0-2.85-4.58.33-4.11C164,45.85,163.32,49.56,160.89,49.55Zm-.64-3.66c-.7-.14-1.19,2.56-.46,2.77C160.56,48.38,160.61,46.24,160.25,45.89Z"/><path class="cls-3" d="M129.92,28.25c-2.88,0-2.85-4.58.33-4.11C133,24.55,132.35,28.26,129.92,28.25Zm-.64-3.66c-.7-.14-1.19,2.56-.46,2.77C129.59,27.08,129.64,24.94,129.28,24.59Z"/><path class="cls-3" d="M73.36,7.55c3-1,3.88,3.47,1,4C72,12,70.67,8.44,73.36,7.55Zm2,2.92c.69-.34-.27-2.91-.93-2.65C74.09,8.23,74.52,10.33,75.32,10.47Z"/><path class="cls-3" d="M88.28,2.42c3.18-.47,3.21,4.1.33,4.11C86.18,6.54,85.49,2.83,88.28,2.42Zm1.42,3.22c.74-.21.25-2.91-.46-2.77C88.89,3.22,88.94,5.36,89.71,5.64Z"/><path class="cls-3" d="M126.26,12c-2.85-.42-2.17-4.94.91-4C129.88,8.75,128.67,12.32,126.26,12Zm-.11-3.71c-.67-.24-1.54,2.36-.84,2.68C126.1,10.77,126.46,8.66,126.15,8.26Z"/><path class="cls-3" d="M111.14,6.53c-2.88,0-2.85-4.58.33-4.11C114.27,2.83,113.57,6.54,111.14,6.53Zm-.64-3.66c-.7-.14-1.19,2.56-.46,2.77C110.81,5.36,110.86,3.22,110.5,2.87Z"/><path class="cls-3" d="M99.93,4.14c-2.88,0-2.85-4.58.33-4.11C103.05.44,102.36,4.15,99.93,4.14ZM99.29.49C98.59.35,98.1,3,98.83,3.26,99.6,3,99.65.84,99.29.49Z"/><path class="cls-2" d="M141.21,68.9c0,.11-.14.13-.13.27a30.51,30.51,0,0,0,3.77-8.07c1-3,1.72-6.29,3.23-8.74A12.38,12.38,0,0,1,150.63,49c-5.61,3-7.45,11.07-10.49,16.82-2.65,4.74-7.78,8.16-13.72,10-6.28,1.89-14.79.67-21.26-1.35,4.65,3.21,13.76,3.84,15.2,3.9,1.22.05,7.17,5,18,8.61a41.59,41.59,0,0,0,13.72,2c2.18,0,11.79,0,19-1.88-5.5-.75-15.8-7.41-21.4-9.09-3.46-1-10.23-1.12-12.77.88,4.13-.42,13.68.38,19.37,5.92a37.2,37.2,0,0,1-10.09.81,46.32,46.32,0,0,1-14-3.23c-3.06-1.1-6.42-2.3-10.09-3.9a37.67,37.67,0,0,0,19.24-5.65c7.21-4.29,10.92-12.2,12.38-16.55s1.83-9.31,3.36-13.59A13.26,13.26,0,0,1,158.29,40c-5.64,5.79-19.82,3.05-23.81,10.49a10.73,10.73,0,0,1,5.78-2.56c3.85-.73,9.05.91,12.11-.94C149.58,54.67,147.46,64.21,141.21,68.9Z"/><path class="cls-2" d="M115,55.72a30.82,30.82,0,0,0-3.09-1.88A9.17,9.17,0,0,1,109.19,52c2.09,4.86,8.84,5.06,9.42,11.44-1.57-1.94-3.29-4.83-6.05-4.71,4.4,2.87,6.24,8.29,7.53,14.26a23,23,0,0,0-5-20.31c-1.8-1.95-4-3.71-5.92-5.52a30.35,30.35,0,0,1-5.11-6.32c2.15,6,1.06,15.93,3.5,22.6a20.48,20.48,0,0,0,12.78,12.24c-5-3.33-6.45-8.31-7.13-10.49-.73-2.36-.68-5.26-2.83-6.86a31.92,31.92,0,0,1,1.21,5,21.33,21.33,0,0,0,1.21,4.84c-4.1-3.17-4.34-12.4-4.57-18.7C110.53,51.47,113.15,53.2,115,55.72Z"/><path class="cls-2" d="M177.53,47.11c-8,5.5-21.81,5.9-24.35,16.41,3.39-4.24,7.86-8.09,14.53-8.61-4.49,8.13-11.38,12.34-24.62,18.57,8.45-1.83,15.08-4.82,20.58-9.42S177.53,47.24,177.53,47.11Z"/><path class="cls-2" d="M122,72.13c3.25-3,7.81-8.44,10.9-11.57,1.24-1.26,2.16-2.21,3.63-3.9-5,2.36-8.61,6.1-12,10.09,1.25-6.91,5.69-10.64,12.24-12.24,3.38,4.94.19,11.64-3.63,14,.77-2.21,1.71-4.32,1.08-7.4a30.38,30.38,0,0,1-1.48,3.63c-1.39,3-4,5.82-9.28,7.53,9.82,1.7,16.54-6,17.09-14.13.24-3.59-.22-7.59,3.63-8.88a13.76,13.76,0,0,0-5.92.27A23.79,23.79,0,0,0,128,55.72C124.14,60,121.22,64.84,122,72.13Z"/><path class="cls-2" d="M165,68.9c5.32-2.3,9.23-3,13.32-2.56a25.6,25.6,0,0,1,7,1.61c-7,4.92-21.91,8-36.46,6.05,2.92,1.51,11.09,2.56,15.74,2.42C170.72,76.26,190,74.05,200,65c-7.19,1.27-14.8-1.76-22.47-1.35A19.89,19.89,0,0,0,165,68.9Z"/><path class="cls-2" d="M123.25,15.94c-.39,5.68-5.52,6.36-6.32,11.17a6.17,6.17,0,0,0,.94,5c-.44-2.78.3-6.2,2.29-7.4,1,9.27,8.82,11.81,9,21.93-1-4.84-3.58-10.07-7.51-11.4,2.46,2.43,5.1,5.72,5.49,10.46s-1.13,8.06-3,11.17c3.17-2.12,6-4.42,7.27-8.48a10.53,10.53,0,0,0,.27-4A22.75,22.75,0,0,0,128,34.1c-1.74-2.75-4.51-5.82-4.71-8.88C123,21.83,124.67,18.62,123.25,15.94Z"/><path class="cls-2" d="M103.34,19.84a14.11,14.11,0,0,0,7.8,14.93,14.05,14.05,0,0,1-4.44-6.46c7.72,3.8,13.32,9.73,15.47,19.1-2-4.92-4.89-8.92-9.42-11.3a30.77,30.77,0,0,0,2.42,2.42c4,3.76,5.82,11.78,4.71,19.24,2.52-3,4.73-6.94,4.3-12a20.67,20.67,0,0,0-7.67-14c-3.05-2.58-6.35-4.52-9-6.76C106,23.77,104.28,22.53,103.34,19.84Z"/><path class="cls-2" d="M139.66,31.81a17.65,17.65,0,0,1-.13,5,10.75,10.75,0,0,1-1.75,4.57,12.39,12.39,0,0,0-.67-7.53c1.09,8.25-3.11,11-4.57,12.24,6.74-.1,10.76-2.14,12.25-7.78.93-4.55-2.13-8-1.36-12.13-.46.36-.82.83-1.35,1.21-1.88,1.36-4.79,1.34-7.13,2.29a8.15,8.15,0,0,0-5.25,6.19,16.57,16.57,0,0,1,1.61-2.15c2.26-2.39,6.4-2.39,10-3.5,1.92,3.68,1.44,9.77-1.61,12C141.24,39.68,141.26,34.28,139.66,31.81Z"/><path class="cls-2" d="M109.9,7.69c-3.93,3.28-5.06,9.55-5,11.57C107.16,11,109.88,7.85,109.9,7.69Z"/><path class="cls-2" d="M123.62,11.72c-6.13,2.7-10.89,6.78-12.65,13.86A32.81,32.81,0,0,1,123.62,11.72Z"/></g></g></g></svg>